<?xml version="1.0" standalone="no"?>
<!DOCTYPE svg PUBLIC "-//W3C//DTD SVG 20010904//EN"
 "http://www.w3.org/TR/2001/REC-SVG-20010904/DTD/svg10.dtd">
<svg version="1.0" xmlns="http://www.w3.org/2000/svg"
 width="260.000000pt" height="260.000000pt" viewBox="0 0 260.000000 260.000000"
 preserveAspectRatio="xMidYMid meet">
<metadata>
Created by potrace 1.11, written by Peter Selinger 2001-2013
</metadata>
<g transform="translate(0.000000,260.000000) scale(0.100000,-0.100000)"
fill="#000000" stroke="none">
<path d="M1174 2472 c-206 -72 -390 -301 -503 -625 -95 -272 -100 -567 -14
-786 97 -244 299 -428 523 -475 l25 -5 0 -235 0 -234 55 -4 c30 -2 75 -1 99 2
l45 5 -1 241 0 241 46 12 c229 61 440 272 523 524 39 120 54 311 35 437 -11
64 -19 107 -28 136 -5 17 -11 40 -13 50 -8 42 -78 217 -113 281 -112 210 -254
357 -413 426 -72 31 -191 35 -266 9z"/>
</g>
</svg>
