<?xml version="1.0" standalone="no"?>
<!DOCTYPE svg PUBLIC "-//W3C//DTD SVG 20010904//EN"
 "http://www.w3.org/TR/2001/REC-SVG-20010904/DTD/svg10.dtd">
<svg version="1.0" xmlns="http://www.w3.org/2000/svg"
 width="260.000000pt" height="260.000000pt" viewBox="0 0 260.000000 260.000000"
 preserveAspectRatio="xMidYMid meet">
<metadata>
Created by potrace 1.11, written by Peter Selinger 2001-2013
</metadata>
<g transform="translate(0.000000,260.000000) scale(0.100000,-0.100000)"
fill="#000000" stroke="none">
<path d="M1215 2301 c-6 -5 -28 -14 -50 -21 -69 -22 -145 -83 -222 -178 -29
-35 -53 -67 -53 -72 0 -5 -6 -15 -14 -23 -13 -12 -37 -60 -94 -188 -12 -26
-26 -68 -32 -95 -6 -27 -14 -58 -20 -69 -38 -85 -39 -448 -1 -500 4 -5 13 -30
20 -55 17 -57 52 -119 112 -195 75 -96 163 -157 283 -196 l66 -22 0 -188 c0
-103 3 -194 6 -203 5 -13 22 -16 85 -16 l79 0 0 215 c0 118 3 214 8 213 13 -3
93 23 135 44 188 96 343 314 364 510 3 32 10 58 14 58 5 0 9 36 9 80 0 44 -4
80 -8 80 -4 0 -13 41 -20 92 -7 50 -16 96 -21 102 -4 6 -13 33 -20 59 -6 27
-20 65 -31 85 -11 20 -20 40 -20 45 0 4 -21 45 -47 90 -87 154 -203 272 -313
319 -25 10 -53 23 -62 28 -22 12 -141 13 -153 1z"/>
</g>
</svg>
