<?xml version="1.0" standalone="no"?>
<!DOCTYPE svg PUBLIC "-//W3C//DTD SVG 20010904//EN"
 "http://www.w3.org/TR/2001/REC-SVG-20010904/DTD/svg10.dtd">
<svg version="1.0" xmlns="http://www.w3.org/2000/svg"
 width="260.000000pt" height="260.000000pt" viewBox="0 0 260.000000 260.000000"
 preserveAspectRatio="xMidYMid meet">
<metadata>
Created by potrace 1.11, written by Peter Selinger 2001-2013
</metadata>
<g transform="translate(0.000000,260.000000) scale(0.100000,-0.100000)"
fill="#000000" stroke="none">
<path d="M1180 2474 c-294 -58 -506 -259 -580 -549 -28 -110 -26 -288 5 -367
4 -11 2 -19 -6 -22 -149 -46 -259 -111 -351 -207 -306 -319 -256 -847 104
-1099 75 -52 193 -106 255 -116 21 -3 42 -8 46 -11 19 -12 188 -10 252 2 148
28 290 102 390 202 15 14 19 13 48 -14 81 -75 178 -133 283 -167 71 -23 89
-27 178 -33 140 -10 301 29 426 103 61 37 167 134 211 194 49 65 105 192 125
277 14 60 13 239 -2 307 -53 249 -239 459 -479 540 -35 12 -66 24 -69 26 -2 3
2 32 10 65 28 118 14 285 -35 416 -66 175 -229 341 -401 409 -127 50 -292 68
-410 44z m240 -400 c90 -29 190 -129 214 -214 47 -163 -26 -335 -174 -410 -62
-32 -152 -42 -229 -26 -88 18 -185 97 -228 185 -23 47 -27 69 -28 141 0 77 3
92 33 152 77 157 244 227 412 172z m-549 -924 c147 -39 250 -182 243 -340 -10
-251 -273 -399 -500 -282 -100 51 -177 182 -175 299 3 225 212 381 432 323z
m1136 -28 c172 -89 232 -317 128 -482 -76 -120 -228 -181 -366 -145 -104 26
-178 87 -227 185 -23 48 -27 67 -27 145 0 73 5 99 23 136 54 109 138 173 257
193 79 14 140 5 212 -32z"/>
</g>
</svg>
